<svg xmlns="http://www.w3.org/2000/svg" width="123" height="171" viewBox="0 0 123 171">
  <metadata><?xpacket begin="﻿" id="W5M0MpCehiHzreSzNTczkc9d"?>
<x:xmpmeta xmlns:x="adobe:ns:meta/" x:xmptk="Adobe XMP Core 5.6-c142 79.160924, 2017/07/13-01:06:39        ">
   <rdf:RDF xmlns:rdf="http://www.w3.org/1999/02/22-rdf-syntax-ns#">
      <rdf:Description rdf:about=""/>
   </rdf:RDF>
</x:xmpmeta>                      
<?xpacket end="w"?></metadata>
<defs>
    <style>
      .cls-1 {
        fill: #050505;
        fill-rule: evenodd;
      }

      .cls-2 {
        font-size: 33.333px;
        font-family: Centaur;
      }
    </style>
  </defs>
  <path class="cls-1" d="M29.679,9.347c52.516-25.078,93.128,49.24,93.128,49.24-15.949-7.009-23.717-2.7-24.761,13.732C82,65.363,75.786,68.81,73.965,85.674l26.285,47.4c15,23.389,5.745,41.494-12.02,36.933-6.967-1.787-14.887-17.685-8.227-18.5,23.267,14.481,9.887-11.248,9.887-11.248l-26.9-48.5c-14.4-7.871-22.94-3.132-23.984,13.3-11.55-8.007-20.541-5.9-23.3,12.924,0,0-38.916-71.647,6.694-103.314L18.171-.279Z"/>
  <text id="OMAR" class="cls-2" transform="matrix(0.965, -0.262, 0.126, 0.465, -0.632, 153.274)">OMAR</text>
</svg>
