<svg xmlns="http://www.w3.org/2000/svg" width="465" height="92"><path d="M81.755 28.65a27.609 27.609 0 0 0 .977-6.652 13.362 13.362 0 0 0-5.035-10.926q-5.036-4.087-13.459-4.089a56.878 56.878 0 0 0-19.012 3.784 75.8 75.8 0 0 0-18.952 9.888 66.2 66.2 0 0 0-18.8 20.08Q.515 52.394.516 63.624q0 12.267 6.988 19.9t18.219 7.629q8.544 0 18.768-4.425a76.265 76.265 0 0 0 19.135-11.993 60.753 60.753 0 0 0 14.526-17.487 39.683 39.683 0 0 0 5.249-19.012 29.479 29.479 0 0 0-1.648-9.583zM81.023 27a16.063 16.063 0 0 0-7.141-8.209 22.722 22.722 0 0 0-11.9-3.143q-15.564 0-31.1 14.8T15.348 60.142a16.477 16.477 0 0 0 3.51 10.772 10.858 10.858 0 0 0 8.758 4.3 9.677 9.677 0 0 0 6.5-2.38 7.19 7.19 0 0 0 2.778-5.615q0-4.333-3.907-4.334a4.581 4.581 0 0 0-3.357 1.4 4.724 4.724 0 0 0-1.4 3.479q0 3.357 2.868 3.357a3.268 3.268 0 0 0 2.381-.733l.549-.244q.183 0 .244.367 0 1.16-2.167 2.38a8.614 8.614 0 0 1-4.242 1.221 8.44 8.44 0 0 1-7.08-3.571 15.078 15.078 0 0 1-2.685-9.308q0-14.4 14.923-29.51T62.1 16.626q7.629 0 12.085 4.487t4.456 12.115a33.2 33.2 0 0 1-14.283 14.526 1.689 1.689 0 0 0-.976.855.431.431 0 0 0 .488.488q1.891 0 7.233-4.974a39.4 39.4 0 0 0 7.416-8.637q-1.893 19.227-19.166 36.805T24.991 89.869a18.057 18.057 0 0 1-13.764-5.672q-5.341-5.672-5.34-14.7 0-14.211 9.216-28.725a74.114 74.114 0 0 1 22.522-22.994q14.341-9.33 28.381-9.331 7.08 0 11.414 3.753a12.48 12.48 0 0 1 4.333 9.919 16.915 16.915 0 0 1-.732 4.882zM227.385 9.087q-1.464 0-6.531 3.357a71.515 71.515 0 0 0-17.272 16.479 210.017 210.017 0 0 0-13.22 21.383q-3.266 5.859-6.983 12.919-6.287 11.963-10.773 17a26.326 26.326 0 0 1-10.956 7.355h-.793a46.838 46.838 0 0 0-6.592-.611q-4.518 0-4.516 1.526 0 1.251 3.236 1.252a26.123 26.123 0 0 0 8.367-1.374 56.755 56.755 0 0 0 10.809 1.129 26.485 26.485 0 0 0 13.588-3.238q5.527-3.239 12.55-12.162 5.739-7.274 5.74-7.884a.328.328 0 0 0-.244-.367 1.843 1.843 0 0 0-1.037.856q-10.316 13.935-15.961 17.938t-15.045 4a60.118 60.118 0 0 1-8.362-.824 44.594 44.594 0 0 0 19.684-13.489q7.965-9.4 18.1-30.884 6.952-14.769 12.377-21.911a38.347 38.347 0 0 1 12.557-10.925q1.645-.855 1.646-1.16a.324.324 0 0 0-.366-.366zm23.1 1.732q-6.621-5.973-16.871-5.974-11.717 0-23.249 7.754a77.589 77.589 0 0 0-13.456 11.571A245.212 245.212 0 0 0 180.53 44.9q-14.583 20.027-20.137 26.5a66.325 66.325 0 0 1-12.142 11.112q-5.43 3.907-6.834 3.907a.641.641 0 0 1-.244-.122.26.26 0 0 1 .244-.244q9.4-5.8 15.381-17.036 6.042-11.54 12.879-36.879 4.576-17.28 10.253-23.508a1.375 1.375 0 0 0 .245-.488.354.354 0 0 0-.428-.367q-2.872 0-9.622 7.325A99.067 99.067 0 0 0 158 31.4q-12.77 21.18-17.045 27.5a109.651 109.651 0 0 1-10.447 12.97Q115.173 88.4 99.228 88.4q-7.82 0-12.8-3.2t-4.979-8.209q0-3.356.983-3.357c.328 0 .493.408.493 1.221q0 3.3 3.01 3.3a4.062 4.062 0 0 0 3.134-1.434 4.98 4.98 0 0 0 1.291-3.449q0-3.9-3.967-3.906a5.753 5.753 0 0 0-4.578 2.167 7.994 7.994 0 0 0-1.831 5.34q0 5.616 5.343 9.186t13.828 3.571q13.067 0 26.01-9.278a63.584 63.584 0 0 0 13.584-13.031q5.707-7.416 13.28-21.82 12.27-23.437 21.369-32.471 2.808-2.868 3.6-2.624a1 1 0 0 1-.366.61q-9.339 9.526-16.6 31.507-8.546 25.767-11.841 32.667a31.144 31.144 0 0 1-9.521 11.968q-1.223.915-1.282.976a.353.353 0 0 0 .366.427q1.525 0 6.895-2.747 11.96-6.165 30.632-30.9 12.63-16.792 16.963-21.982a118 118 0 0 1 10.74-11.295q15.8-14.775 30.876-14.776a23.19 23.19 0 0 1 15.8 5.646 17.6 17.6 0 0 1 6.469 13.763 14.813 14.813 0 0 1-.916 5.737l-.122.489a.342.342 0 0 0 .427.335q.55 0 1.069-2.225a20.26 20.26 0 0 0 .518-4.6 19.553 19.553 0 0 0-6.616-15.185zm-90.578 11.268a.87.87 0 0 0-.611.61 22.3 22.3 0 0 1-5.962 7.041q-3.7 2.878-6.694 2.878-5.013 0-5.013-4.639a11.208 11.208 0 0 1 1.343-4.456q3.9-7.995 3.906-11.9a10.422 10.422 0 0 0-3.388-8.24Q140.101.392 134.12.39q-14.528 0-26.764 11.109T95.118 35.852a15.263 15.263 0 0 0 4.153 11.108 14.332 14.332 0 0 0 10.752 4.272q9.406 0 17.471-7.263 3.909-3.478 3.909-4.7a.461.461 0 0 0-.488-.55.68.68 0 0 0-.366.305 27.064 27.064 0 0 1-9.133 8.088 22.811 22.811 0 0 1-11.149 3.143A13.473 13.473 0 0 1 100.16 46.2a14.4 14.4 0 0 1-3.939-10.468q0-12.388 11.963-23.376T133.757 1.37a13.983 13.983 0 0 1 7.691 1.892 5.732 5.732 0 0 1 2.929 5q0 2.5-3.112 8.606a19.074 19.074 0 0 0-2.5 8.361 8.535 8.535 0 0 0 2.322 6.073 7.5 7.5 0 0 0 5.685 2.472q4.89 0 10.146-5.936 3.485-3.917 3.484-5.264a.432.432 0 0 0-.488-.488zm140.015 2.38a1.472 1.472 0 0 0-.918.734q-6.542 9.063-12.654 9.063-5.38 0-5.38-4.517 0-1.832 2.625-7.019 2.929-5.676 2.929-9.827a10.992 10.992 0 0 0-3.631-8.728Q279.264 1 272.856 1q-14.526 0-26.947 10.987t-12.42 23.865q0 7.08 4.214 11.352t11.178 4.273q10.263 0 18.508-8.118a32.078 32.078 0 0 0 4.4-5.463q2.138-3.264 2.139-4.547a.515.515 0 0 0-.55-.61.666.666 0 0 0-.488.61 27.731 27.731 0 0 1-9.866 12.116q-6.993 5.036-13.9 5.035a13.755 13.755 0 0 1-14.354-14.4q0-12.512 11.932-23.255T272.612 2.1a15.045 15.045 0 0 1 8.271 2.167q3.387 2.167 3.387 5.218a13.221 13.221 0 0 1-1.892 5.86q-4.029 7.63-4.028 11.047a9.331 9.331 0 0 0 2.23 6.5 7.424 7.424 0 0 0 5.777 2.472q5.562 0 11.8-7.162 2.259-2.571 2.261-3.244a.432.432 0 0 0-.488-.489zm57.342-13.336a42.06 42.06 0 0 0-8.118.855A74.127 74.127 0 0 0 313.6 21.3q-16.815 9.186-34.7 29.083-6.165-.121-12.024-.122l-.732 1.1h11.84l-1.829 1.893q-5.184 5.127-13.9 14.282a76.793 76.793 0 0 1-7.99 7.568 71.688 71.688 0 0 1-13.1 8.721 35.226 35.226 0 0 1-15.747 4.158q-9.148 0-15.429-4.12t-6.281-10.1a8.365 8.365 0 0 1 .606-3.112q.608-1.525 1.213-1.526a.513.513 0 0 1 .546.61 1.539 1.539 0 0 1-.121.671l-.122 1.221q0 2.746 2.851 2.747a4.261 4.261 0 0 0 3.183-1.435 4.821 4.821 0 0 0 1.365-3.448q0-3.846-3.967-3.845a6.326 6.326 0 0 0-4.975 2.38 8.51 8.51 0 0 0-2.044 5.737q0 6.471 6.744 10.987t16.388 4.516q16.907 0 36.011-15.5 8.178-6.651 23.132-22.4h23.5q-13.857 22.889-18.708 28.077t-14.312 7.446a57.3 57.3 0 0 0-7.752-.61q-4.761 0-4.761 1.464 0 1.282 3.542 1.282A28.775 28.775 0 0 0 275 87.732a56.954 56.954 0 0 0 10.871 1.282A26.417 26.417 0 0 0 299 85.989q5.373-3.024 11.908-11.031 7.023-8.556 7.023-9.473a.374.374 0 0 0-.427-.244 1.582 1.582 0 0 0-.856.855 74.959 74.959 0 0 1-12.276 14.791A26.44 26.44 0 0 1 285.5 88.1a56.867 56.867 0 0 1-8.368-.733Q300.2 82 314.971 52.393q9.642-19.285 17.181-27.893a37.409 37.409 0 0 1 17.365-11.6 55.962 55.962 0 0 1 10.864 1.343 38.624 38.624 0 0 0 4.089.733 1.06 1.06 0 0 0 1.282-1.1q0-2.746-8.484-2.747zm-29.785 14.832a111.817 111.817 0 0 0-18.86 24.414h-23.128q17.762-19.715 31.372-28.076a61.422 61.422 0 0 1 29.541-9.156q-8.056 2.076-18.921 12.818zm124.3-15.325q-4.975-4.878-13.153-4.878-10.437 0-21.607 6.953-12.207-7.99-30.151-7.99a71.421 71.421 0 0 0-43.121 14.251q-19.5 14.253-19.5 31.525 0 8.546 5.1 13.641t13.581 5.1q13 0 26.367-12.085t13.367-23.926q0-9.7-10.5-9.705-10.987 0-21.424 9.026T340.3 51.088a10.4 10.4 0 0 0 2.022 6.5 6.046 6.046 0 0 0 4.962 2.653q1.164 0 1.164-.488c0-.365-.348-.549-1.043-.549a4.55 4.55 0 0 1-3.435-1.586 5.361 5.361 0 0 1-1.472-3.781q0-8.9 10.406-19.056t19.5-10.154q9.093 0 9.094 8.85 0 11.109-13.092 22.888t-25.36 11.78q-7.507 0-11.9-4.028t-4.395-10.864q0-13.489 15.625-28.748 19.044-18.615 44.8-18.616 18.432 0 27.954 8.112-5.856 4.029-14.212 13.368A164.267 164.267 0 0 0 386.4 45.982q-12.321 18.8-15.981 23.682a62.221 62.221 0 0 1-8.112 8.851q-10.857 9.89-24.215 9.889-7.565 0-12.536-3.357t-4.97-8.423q0-3.234.977-3.235.3 0 .244 1.343-.123 3.3 3.051 3.3a3.9 3.9 0 0 0 3.083-1.465 5.272 5.272 0 0 0 1.251-3.54q0-4.15-3.723-4.15a5.665 5.665 0 0 0-4.456 2.258 8.093 8.093 0 0 0-1.892 5.371q0 5.616 5.432 9.369t13.611 3.754q10.01 0 22.766-6.227 10.8-5.37 16.785-12.024a69.417 69.417 0 0 0 8.455-12.5q2.293-4.134 4.728-9.229 11.9-24.9 25.269-34.915l.61.792q4.638 5.49 4.639 11.466a19.928 19.928 0 0 1-4.639 13.144 18.831 18.831 0 0 1-11.9 6.739 19.739 19.739 0 0 0-7.2-1.4q-3.053 0-3.051.975 0 1.529 6.042 1.527.549 0 4.456-.366a6.182 6.182 0 0 1 2.38 4.885 17.634 17.634 0 0 1-1.1 5.5q-4.394 12.643-4.394 17.652a17.254 17.254 0 0 0 3.972 11.574 12.415 12.415 0 0 0 9.84 4.672 16.484 16.484 0 0 0 5.928-1.362q3.422-1.363 3.423-2.392a.432.432 0 0 0-.489-.488 2.732 2.732 0 0 0-1.1.488 12.182 12.182 0 0 1-7.4 2.594 8.9 8.9 0 0 1-6.42-2.535 8.278 8.278 0 0 1-2.629-6.2 32.464 32.464 0 0 1 2.136-9.773q3.234-9.466 3.235-14.109 0-6.961-6.348-10.627 9.339-1.16 15.045-6.191a15.652 15.652 0 0 0 5.707-12.167q0-8.418-9.033-15.614 10.558-6.647 20.874-6.647 7.507 0 12.085 4.664t4.578 12.346a25.76 25.76 0 0 1-1.618 9.2 1.92 1.92 0 0 0-.122.549.539.539 0 0 0 .61.61q.785 0 1.628-3.78a32.062 32.062 0 0 0 .844-6.951q-.001-7.991-4.975-12.869z" fill-rule="evenodd" data-name="Artboard 1"/></svg>