<svg xmlns="http://www.w3.org/2000/svg" width="123" height="171"><path d="M29.679 9.347c52.516-25.078 93.128 49.24 93.128 49.24-15.949-7.009-23.717-2.7-24.761 13.732C82 65.363 75.786 68.81 73.965 85.674l26.285 47.4c15 23.389 5.745 41.494-12.02 36.933-6.967-1.787-14.887-17.685-8.227-18.5 23.267 14.481 9.887-11.248 9.887-11.248l-26.9-48.5c-14.4-7.871-22.94-3.132-23.984 13.3-11.55-8.007-20.541-5.9-23.3 12.924 0 0-38.916-71.647 6.694-103.314L18.171-.279z" fill="#050505" fill-rule="evenodd"/><text transform="matrix(.965 -.262 .126 .465 -.632 153.274)" font-size="33.333" font-family="Centaur">OMAR</text></svg>